<svg width="966" height="730" viewBox="0 0 966 730" fill="none" xmlns="http://www.w3.org/2000/svg">
<g clip-path="url(#clip0_602_2)">
<path d="M445.394 155.565H207.136C205.967 155.564 204.845 155.098 204.018 154.271C203.191 153.444 202.726 152.322 202.724 151.153V92.0513C202.726 90.8816 203.191 89.7601 204.018 88.933C204.845 88.1058 205.967 87.6405 207.136 87.6392H445.394C446.563 87.6405 447.685 88.1058 448.512 88.933C449.339 89.7601 449.804 90.8816 449.806 92.0513V151.153C449.804 152.322 449.339 153.444 448.512 154.271C447.685 155.098 446.563 155.564 445.394 155.565V155.565ZM207.136 89.404C206.435 89.4048 205.762 89.6839 205.265 90.1802C204.769 90.6765 204.49 91.3494 204.489 92.0513V151.153C204.49 151.855 204.769 152.527 205.265 153.024C205.762 153.52 206.435 153.799 207.136 153.8H445.394C446.095 153.799 446.768 153.52 447.265 153.024C447.761 152.527 448.04 151.855 448.041 151.153V92.0513C448.04 91.3494 447.761 90.6765 447.265 90.1802C446.768 89.6839 446.095 89.4048 445.394 89.404L207.136 89.404Z" fill="#3F3D56"/>
<path d="M244.157 137.307C254.083 137.307 262.13 129.26 262.13 119.334C262.13 109.408 254.083 101.361 244.157 101.361C234.231 101.361 226.184 109.408 226.184 119.334C226.184 129.26 234.231 137.307 244.157 137.307Z" fill="#6C63FF"/>
<path d="M285.665 107.352C284.871 107.352 284.109 107.668 283.547 108.229C282.986 108.791 282.67 109.553 282.67 110.348C282.67 111.142 282.986 111.904 283.547 112.466C284.109 113.027 284.871 113.343 285.665 113.343H426.88C427.675 113.343 428.437 113.027 428.998 112.466C429.56 111.904 429.876 111.142 429.876 110.348C429.876 109.553 429.56 108.791 428.998 108.229C428.437 107.668 427.675 107.352 426.88 107.352H285.665Z" fill="#E6E6E6"/>
<path d="M285.665 125.325C284.871 125.325 284.109 125.641 283.547 126.203C282.986 126.764 282.67 127.526 282.67 128.321C282.67 129.115 282.986 129.877 283.547 130.439C284.109 131.001 284.871 131.316 285.665 131.316H346.431C346.824 131.317 347.215 131.24 347.579 131.09C347.943 130.939 348.274 130.719 348.552 130.441C348.831 130.162 349.052 129.832 349.203 129.468C349.354 129.104 349.432 128.714 349.432 128.321C349.432 127.927 349.354 127.537 349.203 127.173C349.052 126.809 348.831 126.479 348.552 126.201C348.274 125.922 347.943 125.702 347.579 125.552C347.215 125.401 346.824 125.324 346.431 125.325H285.665Z" fill="#E6E6E6"/>
<path d="M341.304 413.107H235.412C234.242 413.105 233.121 412.64 232.294 411.813C231.467 410.986 231.001 409.864 231 408.695V298.412C231.001 297.242 231.467 296.121 232.294 295.294C233.121 294.467 234.242 294.001 235.412 294H341.304C342.474 294.001 343.596 294.467 344.423 295.294C345.25 296.121 345.715 297.242 345.717 298.412V408.695C345.715 409.864 345.25 410.986 344.423 411.813C343.596 412.64 342.474 413.105 341.304 413.107ZM235.412 295.765C234.71 295.766 234.037 296.045 233.541 296.541C233.045 297.037 232.766 297.71 232.765 298.412V408.695C232.766 409.397 233.045 410.069 233.541 410.566C234.037 411.062 234.71 411.341 235.412 411.342H341.304C342.006 411.341 342.679 411.062 343.176 410.566C343.672 410.069 343.951 409.397 343.952 408.695V298.412C343.951 297.71 343.672 297.037 343.176 296.541C342.679 296.045 342.006 295.766 341.304 295.765H235.412Z" fill="#3F3D56"/>
<path d="M257.976 316.742C257.181 316.742 256.419 317.058 255.858 317.62C255.296 318.181 254.98 318.943 254.98 319.738C254.98 320.532 255.296 321.294 255.858 321.856C256.419 322.418 257.181 322.733 257.976 322.733H318.741C319.535 322.733 320.297 322.418 320.859 321.856C321.421 321.294 321.736 320.532 321.736 319.738C321.736 318.943 321.421 318.181 320.859 317.62C320.297 317.058 319.535 316.742 318.741 316.742H257.976Z" fill="#E6E6E6"/>
<path d="M257.976 334.391C257.582 334.39 257.192 334.467 256.828 334.617C256.464 334.767 256.133 334.988 255.854 335.266C255.575 335.544 255.354 335.875 255.203 336.239C255.052 336.602 254.975 336.992 254.975 337.386C254.975 337.78 255.052 338.17 255.203 338.534C255.354 338.897 255.575 339.228 255.854 339.506C256.133 339.784 256.464 340.005 256.828 340.155C257.192 340.305 257.582 340.382 257.976 340.382H318.741C319.535 340.382 320.297 340.066 320.859 339.504C321.421 338.942 321.736 338.181 321.736 337.386C321.736 336.592 321.421 335.83 320.859 335.268C320.297 334.706 319.535 334.391 318.741 334.391H257.976Z" fill="#E6E6E6"/>
<path d="M288.358 390.364C284.629 390.364 280.984 389.259 277.883 387.187C274.782 385.115 272.366 382.17 270.939 378.725C269.512 375.28 269.138 371.488 269.866 367.831C270.593 364.173 272.389 360.814 275.026 358.177C277.663 355.54 281.023 353.744 284.68 353.017C288.338 352.289 292.129 352.662 295.574 354.09C299.019 355.517 301.964 357.933 304.036 361.034C306.108 364.135 307.214 367.78 307.214 371.509C307.208 376.508 305.22 381.301 301.685 384.836C298.15 388.371 293.357 390.359 288.358 390.364V390.364Z" fill="#6C63FF"/>
<path d="M515.426 0H621.318C622.488 0.00137356 623.609 0.466665 624.436 1.29381C625.264 2.12095 625.729 3.24241 625.73 4.41216V114.695C625.729 115.864 625.264 116.986 624.436 117.813C623.609 118.64 622.488 119.105 621.318 119.107H515.426C514.256 119.105 513.135 118.64 512.307 117.813C511.48 116.986 511.015 115.864 511.014 114.695V4.41216C511.015 3.24241 511.48 2.12095 512.307 1.29381C513.135 0.466665 514.256 0.00137356 515.426 0V0ZM621.318 117.342C622.02 117.341 622.693 117.062 623.189 116.566C623.685 116.069 623.965 115.397 623.965 114.695V4.41216C623.965 3.71029 623.685 3.03738 623.189 2.54108C622.693 2.04479 622.02 1.76563 621.318 1.76486H515.426C514.724 1.76563 514.051 2.04479 513.555 2.54108C513.058 3.03738 512.779 3.71029 512.778 4.41216V114.695C512.779 115.397 513.058 116.069 513.555 116.566C514.051 117.062 514.724 117.341 515.426 117.342H621.318Z" fill="#3F3D56"/>
<path d="M598.755 96.3645C599.549 96.3645 600.311 96.0489 600.873 95.4871C601.434 94.9254 601.75 94.1635 601.75 93.369C601.75 92.5746 601.434 91.8126 600.873 91.2509C600.311 90.6891 599.549 90.3735 598.755 90.3735H537.989C537.195 90.3735 536.433 90.6891 535.871 91.2509C535.309 91.8126 534.994 92.5746 534.994 93.369C534.994 94.1635 535.309 94.9254 535.871 95.4871C536.433 96.0489 537.195 96.3645 537.989 96.3645H598.755Z" fill="#E6E6E6"/>
<path d="M598.755 78.716C599.549 78.716 600.311 78.4005 600.873 77.8387C601.434 77.2769 601.75 76.515 601.75 75.7206C601.75 74.9261 601.434 74.1642 600.873 73.6025C600.311 73.0407 599.549 72.7251 598.755 72.7251H537.989C537.195 72.7251 536.433 73.0407 535.871 73.6025C535.309 74.1642 534.994 74.9261 534.994 75.7206C534.994 76.515 535.309 77.2769 535.871 77.8387C536.433 78.4005 537.195 78.716 537.989 78.716H598.755Z" fill="#E6E6E6"/>
<path d="M568.372 22.7422C572.101 22.7422 575.746 23.848 578.847 25.9198C581.948 27.9917 584.364 30.9364 585.792 34.3818C587.219 37.8271 587.592 41.6182 586.865 45.2757C586.137 48.9333 584.341 52.2929 581.704 54.9299C579.067 57.5668 575.708 59.3626 572.05 60.0901C568.393 60.8176 564.602 60.4442 561.156 59.0171C557.711 57.59 554.766 55.1733 552.694 52.0726C550.622 48.9719 549.517 45.3265 549.517 41.5973C549.522 36.5983 551.511 31.8057 555.045 28.271C558.58 24.7362 563.373 22.7478 568.372 22.7422Z" fill="#6C63FF"/>
<path d="M211.856 219.442C219.197 212.85 227.773 208.355 236.891 206.321C246.081 204.29 255.558 204.855 264.52 207.967C269.025 209.522 273.354 211.696 277.414 214.444C281.55 217.247 285.288 220.698 288.884 224.353C292.527 228.054 296.05 231.921 299.853 235.405C310.711 245.467 324.19 250.965 338.09 251C339.238 251.002 340.386 250.965 341.532 250.89C342.154 250.85 342.158 249.724 341.532 249.764C327.364 250.668 313.372 245.767 302.006 235.916C298.065 232.499 294.466 228.592 290.791 224.806C287.229 221.135 283.572 217.564 279.53 214.615C269.645 207.395 258.144 203.709 246.464 204.018C234.783 204.327 223.44 208.616 213.849 216.351C212.937 217.086 212.046 217.854 211.169 218.645C210.677 219.09 211.368 219.882 211.856 219.442V219.442Z" fill="#3F3D56"/>
<path d="M534.242 278.544C527.742 284.715 520.147 288.923 512.074 290.827C503.936 292.728 495.544 292.2 487.608 289.286C483.619 287.831 479.786 285.795 476.191 283.223C472.528 280.598 469.219 277.367 466.034 273.947C462.808 270.481 459.688 266.862 456.321 263.599C446.706 254.18 434.771 249.033 422.463 249C421.446 248.998 420.43 249.032 419.414 249.103C418.864 249.14 418.86 250.195 419.414 250.157C431.96 249.311 444.35 253.899 454.414 263.121C457.905 266.32 461.092 269.978 464.345 273.522C467.499 276.959 470.738 280.301 474.317 283.062C483.07 289.822 493.254 293.272 503.597 292.983C513.94 292.694 523.985 288.679 532.478 281.437C533.285 280.749 534.074 280.03 534.85 279.289C535.286 278.873 534.674 278.132 534.242 278.544L534.242 278.544Z" fill="#3F3D56"/>
<path d="M202.769 240.143C209.885 240.143 215.654 234.374 215.654 227.257C215.654 220.14 209.885 214.371 202.769 214.371C195.652 214.371 189.883 220.14 189.883 227.257C189.883 234.374 195.652 240.143 202.769 240.143Z" fill="#3F3D56"/>
<path d="M682.146 411.231C689.263 411.231 695.032 405.461 695.032 398.345C695.032 391.228 689.263 385.459 682.146 385.459C675.029 385.459 669.26 391.228 669.26 398.345C669.26 405.461 675.029 411.231 682.146 411.231Z" fill="#3F3D56"/>
<path d="M749.652 324.941H539.395C538.225 324.94 537.104 324.475 536.276 323.647C535.449 322.82 534.984 321.699 534.983 320.529V211.129C534.984 209.959 535.449 208.838 536.276 208.011C537.104 207.183 538.225 206.718 539.395 206.717H749.652C750.822 206.718 751.943 207.183 752.77 208.011C753.597 208.838 754.063 209.959 754.064 211.129V320.529C754.063 321.699 753.597 322.82 752.77 323.647C751.943 324.475 750.822 324.94 749.652 324.941ZM539.395 208.482C538.693 208.482 538.02 208.762 537.524 209.258C537.027 209.754 536.748 210.427 536.747 211.129V320.529C536.748 321.231 537.027 321.904 537.524 322.4C538.02 322.896 538.693 323.176 539.395 323.176H749.652C750.354 323.176 751.027 322.896 751.523 322.4C752.019 321.904 752.298 321.231 752.299 320.529V211.129C752.298 210.427 752.019 209.754 751.523 209.258C751.027 208.762 750.354 208.482 749.652 208.482H539.395Z" fill="#3F3D56"/>
<path d="M574.65 263.444C584.576 263.444 592.623 255.397 592.623 245.471C592.623 235.545 584.576 227.499 574.65 227.499C564.724 227.499 556.677 235.545 556.677 245.471C556.677 255.397 564.724 263.444 574.65 263.444Z" fill="#6C63FF"/>
<path d="M616.159 233.49C615.765 233.489 615.375 233.566 615.011 233.716C614.647 233.866 614.316 234.087 614.037 234.365C613.758 234.643 613.537 234.974 613.386 235.338C613.235 235.701 613.158 236.091 613.158 236.485C613.158 236.879 613.235 237.269 613.386 237.633C613.537 237.997 613.758 238.327 614.037 238.605C614.316 238.883 614.647 239.104 615.011 239.254C615.375 239.404 615.765 239.481 616.159 239.481H729.374C730.168 239.481 730.93 239.165 731.492 238.603C732.054 238.042 732.369 237.28 732.369 236.485C732.369 235.691 732.054 234.929 731.492 234.367C730.93 233.805 730.168 233.49 729.374 233.49H616.159Z" fill="#E6E6E6"/>
<path d="M616.159 251.462C615.765 251.462 615.375 251.539 615.011 251.689C614.647 251.839 614.316 252.06 614.037 252.338C613.758 252.616 613.537 252.946 613.386 253.31C613.235 253.674 613.158 254.064 613.158 254.458C613.158 254.852 613.235 255.242 613.386 255.605C613.537 255.969 613.758 256.3 614.037 256.578C614.316 256.856 614.647 257.077 615.011 257.227C615.375 257.377 615.765 257.454 616.159 257.453H676.924C677.718 257.453 678.48 257.138 679.042 256.576C679.604 256.014 679.919 255.252 679.919 254.458C679.919 253.663 679.604 252.902 679.042 252.34C678.48 251.778 677.718 251.462 676.924 251.462H616.159Z" fill="#E6E6E6"/>
<path d="M560.865 280.196C558.586 280.196 556.732 281.54 556.732 283.191C556.732 284.843 558.586 286.187 560.865 286.187H727.698C729.976 286.187 731.83 284.843 731.83 283.191C731.83 281.54 729.976 280.196 727.698 280.196H560.865Z" fill="#E6E6E6"/>
<path d="M560.865 298.168C558.586 298.168 556.732 299.512 556.732 301.164C556.732 302.815 558.586 304.159 560.865 304.159H727.698C729.976 304.159 731.83 302.815 731.83 301.164C731.83 299.512 729.976 298.168 727.698 298.168H560.865Z" fill="#E6E6E6"/>
<path d="M546.917 401.125C556.817 396.836 566.971 402.235 575.459 407.744C579.831 410.582 584.139 413.579 588.716 415.919C592.566 417.883 596.549 419.456 600.625 420.622C608.806 422.951 617.263 423.763 625.729 423.033C634.237 422.313 642.665 420.065 650.751 416.361C658.79 412.699 666.378 407.54 673.248 401.064C674.122 400.236 674.983 399.387 675.83 398.515C676.838 397.482 675.595 395.613 674.588 396.646C667.922 403.448 660.475 408.935 652.524 412.903C644.604 416.857 636.308 419.368 627.899 420.354C619.46 421.369 610.997 420.805 602.792 418.681C598.699 417.612 594.695 416.134 590.816 414.263C586.373 411.981 582.046 409.387 577.855 406.491C569.292 400.871 559.723 395.263 549.553 397.719C548.386 398.01 547.235 398.407 546.108 398.905C544.89 399.433 545.706 401.65 546.917 401.125L546.917 401.125Z" fill="#3F3D56"/>
<path d="M471.227 403.589C458.375 399.151 446.289 407.104 436.297 415.023C431.151 419.101 426.102 423.377 420.644 426.842C416.051 429.752 411.25 432.176 406.287 434.091C396.324 437.918 385.845 439.84 375.184 439.795C364.471 439.765 353.688 437.78 343.168 433.899C332.713 430.067 322.654 424.277 313.345 416.731C312.16 415.767 310.989 414.772 309.833 413.749C308.459 412.535 309.803 410.02 311.177 411.233C320.267 419.217 330.186 425.439 340.567 429.671C350.906 433.889 361.554 436.224 372.173 436.602C382.832 437.014 393.345 435.409 403.362 431.84C408.357 430.048 413.196 427.743 417.834 424.948C423.132 421.572 428.249 417.808 433.163 413.674C443.235 405.606 454.567 397.448 467.552 399.518C469.042 399.767 470.525 400.153 471.989 400.671C473.571 401.218 472.798 404.132 471.227 403.589L471.227 403.589Z" fill="#3F3D56"/>
<path d="M725.698 388.726L706.823 398.311C700.086 401.732 693.584 401.147 691.094 394.014C690.502 392.316 690.283 390.51 690.453 388.72C690.623 386.931 691.178 385.198 692.079 383.643C692.981 382.087 694.208 380.745 695.676 379.707C697.145 378.67 698.82 377.962 700.588 377.632L718.527 374.283L795.356 348.793L841.896 315.792L858.957 342.973L805.181 371.991L725.698 388.726Z" fill="#FFB8B8"/>
<path d="M813.808 706.872L799.366 704.465L800.971 677.187H816.215L813.808 706.872Z" fill="#FFB8B8"/>
<path d="M953.968 680.229L939.992 684.589L929.131 659.516L942.738 652.646L953.968 680.229Z" fill="#FFB8B8"/>
<path d="M946.185 656.327L928.535 663.548L844.295 552.832L817.819 682.803L800.169 679.594C788.846 567.542 779.614 453.25 790.942 399.194L856.329 396.386L886.014 491.056L900.455 555.239L946.185 656.327Z" fill="#2F2E41"/>
<path d="M813.013 728.932C810.373 729.498 807.62 729.206 805.158 728.098L796.579 724.237C789.386 723.868 784.488 725.301 780.483 720.074C779.353 718.58 778.644 716.811 778.428 714.95C778.213 713.09 778.499 711.205 779.257 709.493V709.493C780.009 707.774 781.205 706.287 782.722 705.183C784.239 704.079 786.022 703.399 787.889 703.212L799.672 695.788L800.29 701.354C805.675 704.405 812.069 703.087 818.844 700.117L822.542 713.061C823.019 714.73 823.148 716.479 822.921 718.2C822.694 719.921 822.116 721.576 821.222 723.065C820.329 724.553 819.139 725.842 817.727 726.851C816.315 727.86 814.71 728.569 813.013 728.932Z" fill="#2F2E41"/>
<path d="M959.687 702.381C957.373 703.773 954.675 704.39 951.986 704.142L942.619 703.277C935.695 705.263 931.528 708.209 926.043 704.566C924.489 703.52 923.243 702.077 922.435 700.387C921.627 698.697 921.286 696.822 921.448 694.956C921.601 693.086 922.249 691.291 923.325 689.755C924.401 688.218 925.867 686.996 927.572 686.213L936.305 675.365L938.697 680.428C944.782 681.565 950.401 678.242 955.844 673.233L963.545 684.275C964.538 685.698 965.228 687.311 965.572 689.012C965.916 690.714 965.907 692.468 965.545 694.165C965.184 695.863 964.477 697.468 963.469 698.881C962.461 700.295 961.174 701.486 959.687 702.381V702.381Z" fill="#2F2E41"/>
<path d="M832.26 282.461C848.212 282.461 861.143 269.53 861.143 253.579C861.143 237.627 848.212 224.696 832.26 224.696C816.309 224.696 803.378 237.627 803.378 253.579C803.378 269.53 816.309 282.461 832.26 282.461Z" fill="#FFB8B8"/>
<path d="M867.561 314.553L829.853 306.53L825.04 275.241L851.515 269.625L867.561 314.553Z" fill="#FFB8B8"/>
<path d="M857.131 400.398H789.739L804.929 362.26C803.826 349.137 809.387 339.485 817.348 331.082L827.447 305.728C843.764 294.988 856.066 295.791 869.166 309.739C884.697 331.73 873.946 364.787 857.131 400.398Z" fill="#6C63FF"/>
<path d="M826.644 481.429L824.728 502.511C824.044 510.036 820.092 515.232 812.726 513.548C810.973 513.147 809.328 512.373 807.902 511.277C806.477 510.182 805.304 508.791 804.466 507.2C803.628 505.61 803.143 503.857 803.045 502.061C802.947 500.266 803.238 498.471 803.898 496.798L810.599 479.824L829.853 401.2L826.644 344.237H858.736L854.724 405.211L826.644 481.429Z" fill="#FFB8B8"/>
<path d="M861.143 345.842H824.237L826.825 321.767C826.995 317.603 828.715 313.654 831.648 310.693C834.582 307.733 838.515 305.977 842.678 305.768V305.768C844.883 305.658 847.089 305.986 849.167 306.734C851.244 307.482 853.153 308.634 854.783 310.125C856.412 311.615 857.73 313.414 858.66 315.417C859.59 317.42 860.113 319.587 860.2 321.794L861.143 345.842Z" fill="#6C63FF"/>
<path d="M868.006 223.881C874.002 223.881 878.862 219.021 878.862 213.025C878.862 207.029 874.002 202.169 868.006 202.169C862.011 202.169 857.15 207.029 857.15 213.025C857.15 219.021 862.011 223.881 868.006 223.881Z" fill="#2F2E41"/>
<path d="M856.82 210.367C856.998 207.613 858.22 205.03 860.236 203.145C862.252 201.26 864.911 200.214 867.671 200.221C867.447 200.192 867.225 200.158 866.996 200.143C864.124 199.96 861.296 200.925 859.136 202.826C856.975 204.727 855.657 207.408 855.472 210.281C855.288 213.153 856.251 215.981 858.151 218.143C860.051 220.305 862.731 221.624 865.603 221.811C865.832 221.825 866.056 221.819 866.282 221.82C863.544 221.473 861.041 220.095 859.283 217.968C857.525 215.84 856.644 213.122 856.82 210.367V210.367Z" fill="#2F2E41"/>
<path d="M856.759 215.003C847.077 206.971 819.307 217.18 817.515 222.579C804.422 224.364 794.509 232.002 794.509 245.585V245.585C802.293 248.774 811.146 248.381 820.716 245.585C835.971 258.017 837.017 273.645 827.739 291.596L839.153 291.824L853.301 271.146L853.977 292.12L880.141 291.596V261.539C880.225 251.545 877.925 241.675 873.431 232.749C869.354 224.828 863.027 220.203 856.759 215.003Z" fill="#2F2E41"/>
<path d="M832.396 268.107C835.263 268.107 837.587 264.853 837.587 260.839C837.587 256.825 835.263 253.571 832.396 253.571C829.529 253.571 827.204 256.825 827.204 260.839C827.204 264.853 829.529 268.107 832.396 268.107Z" fill="#FFB8B8"/>
<path d="M179.195 270.062C179.195 270.062 182.32 215.972 198.543 228.263C214.767 240.553 191.458 275.079 191.458 275.079L179.195 270.062Z" fill="#FFB9B9"/>
<path d="M118.836 430.507C118.836 430.507 154.874 470.964 134.711 473.745C114.549 476.526 106.618 435.631 106.618 435.631L118.836 430.507Z" fill="#FFB9B9"/>
<path d="M71.8098 239.002C76.3329 240.192 80.4035 242.692 83.5104 246.188C86.6173 249.684 88.622 254.02 89.2727 258.652L100.736 340.243L116.806 405.327C116.806 405.327 124.841 412.559 121.627 416.576C118.413 420.594 125.645 437.468 125.645 437.468L105.557 443.896C105.557 443.896 103.146 427.022 99.129 426.218C95.5982 425.512 56.0744 319.929 46.5475 294.352C45.2339 290.825 44.4906 288.819 44.4906 288.819C44.4906 288.819 46.0976 234.984 71.8098 239.002Z" fill="#575A89"/>
<path d="M75.4789 664.492L87.8173 686.357C97.3721 706.756 88.8812 710.462 65.4539 700.35L60.1138 674.532L75.4789 664.492Z" fill="#FFB9B9"/>
<path d="M81.7043 693.552C81.7043 693.552 87.5615 684.015 89.68 685.612C91.7985 687.208 100.536 694.125 100.536 694.125L111.918 705.026C111.918 705.026 150.371 709.091 125.937 722.564C101.503 736.038 88 724.866 88 724.866C88 724.866 53.7776 726.646 54.3296 717.098C54.8817 707.55 65.9186 692.444 65.9186 692.444C65.9186 692.444 79.8289 701.77 81.7043 693.552Z" fill="#2F2E41"/>
<path d="M20.7274 417.339L32.2947 557.302C32.2947 557.302 32.6803 640.972 45.0186 657.166C57.357 673.36 57.7425 681.457 57.7425 681.457L83.1904 668.347C83.1904 668.347 70.0809 646.503 72.7799 643.159C74.4437 641.038 75.6276 638.582 76.2501 635.959L69.3098 549.591L82.4193 399.217L20.7274 417.339Z" fill="#2F2E41"/>
<path d="M52.344 664.492L41.548 693.024L17.064 682.788L29.981 661.407L52.344 664.492Z" fill="#FFB9B9"/>
<path d="M34.3334 683.414C34.3334 683.414 43.5161 677.675 44.664 679.97C45.8118 682.266 50.4032 692.023 50.4032 692.023L55.5685 706.371C55.5685 706.371 87.1343 726.458 60.1599 727.606C33.1855 728.754 26.2985 713.258 26.2985 713.258C26.2985 713.258 -4.11941 700.057 0.472004 692.023C5.06341 683.988 21.1332 675.654 21.1332 675.654C21.1332 675.654 29.1681 689.727 34.3334 683.414Z" fill="#2F2E41"/>
<path d="M118.663 417.724L124.832 546.506C124.832 546.506 68.5386 662.949 62.3694 666.034C60.5311 666.983 58.9017 668.291 57.5772 669.88C56.2527 671.47 55.2601 673.309 54.6579 675.288L20.7274 666.805L36.1504 642.128L70.0809 559.616C70.0809 559.616 75.4789 557.302 77.0213 549.591C78.5636 541.879 81.6482 541.879 73.9367 540.337C66.2252 538.795 66.2252 531.083 66.2252 531.083L40.7773 413.869L118.663 417.724Z" fill="#2F2E41"/>
<path d="M121.35 189.779C124.078 172.963 112.659 157.119 95.8429 154.39C79.0271 151.661 63.1831 163.081 60.4543 179.897C57.7255 196.712 69.1452 212.556 85.9609 215.285C102.777 218.014 118.621 206.594 121.35 189.779Z" fill="#FFB9B9"/>
<path d="M63.5262 186.766C63.5262 186.766 61.2127 226.094 58.1282 229.95C55.0436 233.806 90.5164 233.035 90.5164 233.035C90.5164 233.035 88.2029 199.875 90.5164 196.791C92.8298 193.706 63.5262 186.766 63.5262 186.766Z" fill="#FFB9B9"/>
<path d="M120.974 426.208C120.974 426.208 33.8339 418.498 17.6439 426.208C17.6439 426.208 23.6039 404.098 22.0639 401.788C20.9439 400.098 24.0339 337.118 23.0639 300.788C22.5139 280.288 17.7839 260.268 31.5339 245.048C36.2139 239.878 41.4339 235.538 46.9439 233.418C46.9439 233.418 45.4039 218.768 53.1139 217.998C53.1139 217.998 82.4239 214.908 93.2139 224.168C96.6639 227.108 98.8339 236.068 99.0639 243.788C93.7239 270.048 95.6139 299.188 100.514 329.418C100.814 331.338 101.144 333.268 101.474 335.198C106.674 365.178 114.534 396.088 120.974 426.208Z" fill="#575A89"/>
<path d="M74.7875 193.927C77.3961 193.771 79.9433 194.653 82.5338 194.997C91.8021 196.227 101.444 189.502 103.49 180.379C103.654 179.164 104.016 177.984 104.562 176.887C105.989 174.558 109.237 174.114 111.915 174.649C114.593 175.185 117.132 176.438 119.859 176.581C124.07 176.802 128.113 174.21 130.357 170.64C132.478 166.957 133.379 162.697 132.933 158.471L130.915 160.59C130.094 158.854 129.778 156.924 130.001 155.017C128.931 154.732 127.806 154.727 126.733 155.001C125.661 155.276 124.677 155.821 123.875 156.584C122.095 156.774 123.439 153.283 122.116 152.076C121.473 151.681 120.707 151.538 119.964 151.674C116.177 151.71 113.114 148.814 110.13 146.482C104.96 142.451 98.9136 139.693 92.4803 138.431C88.2043 137.597 83.6573 137.463 79.6021 139.056C76.3285 140.525 73.3741 142.621 70.9052 145.225C64.5564 151.33 58.9344 158.503 56.2932 166.905C54.1459 173.787 54.0851 181.151 56.1184 188.068C57.1826 191.66 60.3901 203.962 65.0857 204.248C70.9859 204.608 67.4435 194.365 74.7875 193.927Z" fill="#2F2E41"/>
<path d="M87.5553 242.788L98.6064 243.972C98.6064 243.972 109.455 265.018 108.667 269.408C107.879 273.798 106.163 271.133 111.046 278.157C115.929 285.18 129.784 303.335 131.499 306C133.215 308.665 179.988 272.978 177.08 262.286C177.08 262.286 191.852 272.884 198.181 274.294C198.181 274.294 149.978 337.512 143.26 345.603C136.543 353.693 131.137 352.031 121.906 347.234C112.674 342.438 65.973 294.59 65.973 294.59L87.5553 242.788Z" fill="#575A89"/>
<path opacity="0.1" d="M101.474 335.198L63.0639 296.788L72.7839 293.618L100.514 329.418C100.814 331.338 101.144 333.268 101.474 335.198Z" fill="black"/>
<path d="M410.101 236.59C404.871 232.927 398.951 230.362 392.701 229.051C386.45 227.74 379.999 227.71 373.737 228.964L376.098 232.088C378.381 231.726 380.689 231.545 383 231.545C391.384 231.532 399.593 233.941 406.641 238.482L394.276 256.141L396.494 259.075L410.125 239.608V236.606L410.101 236.59ZM364.028 224.75V227.145L366.858 230.89C362.971 232.302 359.286 234.218 355.899 236.59L355.875 236.606V239.607L381.007 275.5H384.993L392.485 264.8L399.249 273.75H401.763V271.272L366.605 224.75H364.028ZM390.267 261.865L383 272.244L359.359 238.482C362.39 236.531 365.651 234.962 369.067 233.813L390.267 261.865Z" fill="#EF4444"/>
<path d="M537.101 381.59C531.871 377.927 525.951 375.362 519.701 374.051C513.45 372.74 506.999 372.71 500.737 373.964L503.098 377.088C505.381 376.726 507.689 376.545 510 376.545C518.384 376.532 526.593 378.941 533.641 383.482L521.276 401.141L523.494 404.075L537.125 384.608V381.606L537.101 381.59ZM491.028 369.75V372.145L493.858 375.89C489.971 377.302 486.286 379.218 482.899 381.59L482.875 381.606V384.607L508.007 420.5H511.993L519.485 409.8L526.249 418.75H528.763V416.272L493.605 369.75H491.028ZM517.267 406.865L510 417.244L486.359 383.482C489.39 381.531 492.651 379.962 496.067 378.813L517.267 406.865Z" fill="#EF4444"/>
</g>
<defs>
<clipPath id="clip0_602_2">
<rect width="965.825" height="729.214" fill="white"/>
</clipPath>
</defs>
</svg>
